<?xml version="1.0" encoding="utf-8"?>
<!-- Generator: Adobe Illustrator 18.1.1, SVG Export Plug-In . SVG Version: 6.00 Build 0)  -->
<svg version="1.1" id="Layer_1" xmlns="http://www.w3.org/2000/svg" xmlns:xlink="http://www.w3.org/1999/xlink" x="0px" y="0px"
	 viewBox="0 0 446 446" enable-background="new 0 0 446 446" xml:space="preserve">
<g>
	<rect fill="#21519F" width="446" height="446"/>
	<path fill="#93979E" d="M363.1,255.2v15.6h-6.2c-11.1,0-20.1-9-20.1-20.1v-66.5h15.6v18.9h10.2v15.6h-10.2v32.1
		c0,2.5,2,4.5,4.5,4.5H363.1z"/>
	<g>
		<path fill="#93979E" d="M307.5,205.7l0,6.2l22.6,0l0-6.2L307.5,205.7z"/>
		<path fill="#93979E" d="M313.6,222.1l0,15.1l10.4,0l0-15.1L313.6,222.1z"/>
		<g>
			<path fill="#93979E" d="M314,214.6l0,4.9l9.6,0l0-4.9L314,214.6z"/>
			<path fill="#93979E" d="M307.5,214.6l0,4.9l4.8,0l0-4.9L307.5,214.6z"/>
			<path fill="#93979E" d="M325.3,214.6l0,4.9l4.8,0l0-4.9L325.3,214.6z"/>
		</g>
		<path fill="#93979E" d="M311.3,180.5l0,2.2l14.5,0l0-2.2l-5.4,0c-0.2,0-0.4-0.2-0.4-0.4l0-0.9l-0.8,0c-0.2,0-0.4-0.2-0.4-0.4
			l0-0.7l-0.5,0l0,0.7c0,0.2-0.2,0.4-0.4,0.4l-0.8,0l0,0.9c0,0.2-0.2,0.4-0.4,0.4l-3.1,0c-0.1,0-0.2,0-0.3-0.1l0,0
			c-0.1-0.1-0.1-0.2-0.1-0.3l0-0.5c0-2.6,2.1-4.7,4.7-4.8c0.1,0,0.2,0,0.3,0.1c0.1,0,0.1,0.2,0.1,0.3l0,0.1l0.5,0v-0.1
			c0-0.1,0-0.2,0.1-0.3c0.1-0.1,0.2-0.1,0.3-0.1l0.7,0l0-0.4l-2,0c-1.4,0-2.7,0.5-3.6,1.5c-1,1-1.5,2.3-1.5,3.6l0,0.5
			c0,0.2-0.2,0.4-0.4,0.4L311.3,180.5z"/>
		<g>
			<polygon fill="#93979E" points="328.9,203.9 330.5,204.3 328.9,204.7 308.7,204.7 307.1,204.3 308.7,203.9 			"/>
			<polygon fill="#93979E" points="328.9,202.9 330.5,203.3 328.9,203.7 308.7,203.7 307.1,203.3 308.7,202.9 			"/>
		</g>
		<g>
			<polygon fill="#93979E" points="325.3,185.3 326.9,185.6 325.3,185.9 312.3,185.9 310.8,185.6 312.3,185.3 			"/>
			<polygon fill="#93979E" points="325.3,184.1 326.9,184.4 325.3,184.7 312.3,184.7 310.8,184.4 312.3,184.1 			"/>
			<polygon fill="#93979E" points="325.3,188.8 326.9,189.1 325.3,189.4 312.3,189.4 310.8,189.1 312.3,188.8 			"/>
			<polygon fill="#93979E" points="325.3,186.4 326.9,186.8 325.3,187.1 312.3,187.1 310.8,186.8 312.3,186.4 			"/>
			<polygon fill="#93979E" points="325.3,190 326.9,190.3 325.3,190.6 312.3,190.6 310.8,190.3 312.3,190 			"/>
			<polygon fill="#93979E" points="325.3,187.6 326.9,187.9 325.3,188.3 312.3,188.3 310.8,187.9 312.3,187.6 			"/>
			<polygon fill="#93979E" points="325.3,192.3 326.9,192.6 325.3,193 312.3,193 310.8,192.6 312.3,192.3 			"/>
			<polygon fill="#93979E" points="325.3,191.1 326.9,191.5 325.3,191.8 312.3,191.8 310.8,191.5 312.3,191.1 			"/>
			<polygon fill="#93979E" points="325.3,194.6 326.9,195 325.3,195.3 312.3,195.3 310.8,195 312.3,194.6 			"/>
			<polygon fill="#93979E" points="325.3,193.5 326.9,193.8 325.3,194.1 312.3,194.1 310.8,193.8 312.3,193.5 			"/>
			<polygon fill="#93979E" points="325.3,198.2 326.9,198.5 325.3,198.8 312.3,198.8 310.8,198.5 312.3,198.2 			"/>
			<polygon fill="#93979E" points="325.3,195.8 326.9,196.1 325.3,196.5 312.3,196.5 310.8,196.1 312.3,195.8 			"/>
			<polygon fill="#93979E" points="325.3,199.3 326.9,199.7 325.3,200 312.3,200 310.8,199.7 312.3,199.3 			"/>
			<polygon fill="#93979E" points="325.3,197 326.9,197.3 325.3,197.6 312.3,197.6 310.8,197.3 312.3,197 			"/>
			<polygon fill="#93979E" points="325.3,201.7 326.9,202 325.3,202.3 312.3,202.3 310.8,202 312.3,201.7 			"/>
			<polygon fill="#93979E" points="325.3,200.5 326.9,200.8 325.3,201.2 312.3,201.2 310.8,200.8 312.3,200.5 			"/>
		</g>
		<g>
			<path fill="#93979E" d="M314.6,250.5c0.1,0.1,0.1,0.2,0.1,0.3l0,1.2c0,0.2-0.2,0.4-0.4,0.4l-0.3,0c-0.3,0-0.6,0.1-0.8,0.3
				c-0.2,0.2-0.3,0.5-0.3,0.8c0,0.6,0.5,1.2,1.2,1.2l9.6,0c0.6,0,1.2-0.5,1.2-1.2l0,0c0-0.6-0.5-1.2-1.2-1.2l-0.3,0
				c-0.1,0-0.2,0-0.3-0.1l0,0c-0.1-0.1-0.1-0.2-0.1-0.3l0-1.2c0-0.2,0.2-0.4,0.4-0.4l0.3,0c0.6,0,1.2-0.5,1.2-1.2
				c0-0.3-0.1-0.6-0.3-0.8l0,0c-0.2-0.2-0.5-0.3-0.8-0.3l-0.3,0c-0.2,0-0.4-0.2-0.4-0.4l0-1.2c0-0.1,0-0.2,0.1-0.3
				c0.1-0.1,0.2-0.1,0.3-0.1l0.3,0c0.6,0,1.2-0.5,1.2-1.2c0-0.6-0.5-1.2-1.2-1.2l-0.3,0c-0.1,0-0.2,0-0.3-0.1l0,0
				c-0.1-0.1-0.1-0.2-0.1-0.3l0-1.2c0-0.2,0.2-0.4,0.4-0.4l0.3,0c0.6,0,1.2-0.5,1.2-1.2c0-0.6-0.5-1.2-1.2-1.2l-0.3,0
				c-0.2,0-0.4-0.2-0.4-0.4l0-0.2l-8.2,0v0.2c0,0.2-0.2,0.4-0.4,0.4l-0.3,0c-0.6,0-1.2,0.5-1.2,1.2c0,0.6,0.5,1.2,1.2,1.2l0.3,0
				c0.2,0,0.4,0.2,0.4,0.4l0,1.2c0,0.2-0.2,0.4-0.4,0.4l-0.3,0c-0.6,0-1.2,0.5-1.2,1.2c0,0.3,0.1,0.6,0.3,0.8l0,0
				c0.2,0.2,0.5,0.3,0.8,0.3l0.3,0c0.2,0,0.4,0.2,0.4,0.4l0,1.2c0,0.1,0,0.2-0.1,0.3c-0.1,0.1-0.2,0.1-0.3,0.1l-0.3,0
				c-0.6,0-1.2,0.5-1.2,1.2c0,0.6,0.5,1.2,1.2,1.2l0.3,0C314.4,250.4,314.5,250.4,314.6,250.5z"/>
			<path fill="#93979E" d="M316.5,261.5c0.1,0.1,0.1,0.2,0.1,0.3l0,2.4c0,0.1-0.1,0.3-0.2,0.3c-1,0.7-1.5,1.8-1.5,3
				c0,0.9,0.3,1.7,0.8,2.4l5.9,0c0.5-0.7,0.8-1.5,0.8-2.4l0,0c0-1.2-0.5-2.3-1.5-3c-0.1-0.1-0.2-0.2-0.2-0.3l0-2.4
				c0-0.2,0.1-0.3,0.2-0.4c0.7-0.4,1.1-1,1.1-1.8l0-3.5l-6.8,0l0,3.5C315.4,260.4,315.8,261.1,316.5,261.5
				C316.5,261.4,316.5,261.5,316.5,261.5z"/>
		</g>
		<path fill="#93979E" d="M327.9,212.1c-0.1-0.1-0.3-0.2-0.4-0.2l-17.3,0c-0.2,0-0.3,0.1-0.4,0.2c-0.1,0.1-0.2,0.3-0.2,0.4
			s0.1,0.3,0.2,0.4l0,0c0.1,0.1,0.3,0.2,0.4,0.2l0,0l17.3,0c0.2,0,0.3-0.1,0.4-0.2c0.1-0.1,0.2-0.3,0.2-0.4
			C328.1,212.4,328,212.3,327.9,212.1z"/>
		<path fill="#93979E" d="M309.7,220.9c0.2,0.7,0.8,1.2,1.5,1.2l15.1,0c0.4,0,0.8-0.2,1.1-0.5c0.2-0.2,0.3-0.4,0.4-0.7L309.7,220.9z
			"/>
	</g>
	<path fill="#FFFFFF" d="M108.5,177.1h161v13.6H114.2c-8.4,0-15.1,6.8-15.1,15.1v10h29.1V232H99.1v38.7H82.9v-68
		C82.9,188.5,94.4,177.1,108.5,177.1z"/>
	<path fill="#FFFFFF" d="M133,270.7v-49.8h15.4v49.8H133z"/>
	<path fill="#FFFFFF" d="M219.7,234.9v35.7h-15.6v-35.7c0-11.1-8.1-20.2-18.1-20.2c-10,0-18.1,9-18.1,20.2v35.9h-15.6v-35.9
		c0-19.7,15.1-35.8,33.7-35.8C204.5,199.1,219.7,215.1,219.7,234.9z"/>
	<path fill="#FFFFFF" d="M288.9,177.1v92.4h-15.4v-2.5c-4.9,2.9-10.6,4.6-16.6,4.6c-18.6,0-33.7-16.1-33.7-35.8s15.1-35.7,33.7-35.7
		c6,0,11.7,1.7,16.6,4.6v-27.6H288.9z M273.5,235.7C273.5,235.7,273.5,235.6,273.5,235.7c0-0.6,0-1.1-0.1-1.7c0-0.3,0-0.6-0.1-0.8
		c0-0.2,0-0.3-0.1-0.5c-0.2-1.9-0.7-3.6-1.3-5.3c-1.7-4.6-5.1-9.2-11-11c-1.2-0.4-2.5-0.7-3.9-0.7c0,0-0.1,0-0.1,0c0,0-0.1,0-0.1,0
		c-0.2,0-0.4,0-0.6,0c-0.2,0-0.3,0-0.5,0c-0.4,0-0.8,0-1.3,0.1c0,0-0.1,0-0.1,0c-2.3,0.3-4.5,1.1-6.4,2.3c0,0-0.1,0-0.1,0.1
		c-0.4,0.3-0.8,0.6-1.2,0.9c-0.3,0.2-0.6,0.5-0.9,0.8c-0.1,0.1-0.2,0.2-0.3,0.3c-4,3.7-6.6,9.4-6.6,15.8c0,0,0,0,0,0c0,0,0,0,0,0
		c0,0,0,0,0,0.1c0,10.7,7.2,19.4,16.3,20.1c0,0,0,0,0,0c0.4,0,0.7,0.1,1.1,0.1c0.1,0,0.2,0,0.3,0c0.1,0,0.3,0,0.4,0
		c0.3,0,0.6-0.1,0.9-0.1c0,0,0.1,0,0.1,0c3.3-0.3,6.1-1.7,8.3-3.7C270.6,248.5,273.5,242.5,273.5,235.7
		C273.5,235.7,273.5,235.7,273.5,235.7z"/>
	<g>
		<g>
			<path fill="#FFFFFF" d="M141.7,198.1c-4.2-0.5-8.1,2.4-8.6,6.7c-0.5,4.2,2.4,8.1,6.7,8.6c4.2,0.5,8.1-2.4,8.6-6.7
				C148.9,202.5,145.9,198.6,141.7,198.1z M142.2,210.8c-2.8,0.8-5.7-0.8-6.5-3.6c-0.8-2.8,0.8-5.7,3.6-6.5c2.8-0.8,5.7,0.8,6.5,3.6
				C146.6,207.1,145,210,142.2,210.8z"/>
			<path fill="#FFFFFF" d="M151.2,206.9l-0.5-1.8l1.9-1.3l-0.8-2.7l-2.3-0.1l-0.5-1.8l-1.6-0.9l0.4-2.3l-2.5-1.4l-1.7,1.5l-1.6-0.9
				l-1.8,0.5l-1.3-1.9l-2.7,0.8l-0.1,2.3l-1.8,0.5l-0.9,1.6l-2.3-0.4l-1.4,2.5l1.5,1.7l-0.9,1.6l0.5,1.8l-1.9,1.3l0.8,2.7l2.3,0.1
				l0.5,1.8l1.6,0.9l-0.4,2.3l2.5,1.4l1.7-1.5l1.6,0.9l1.8-0.5l1.3,1.9l2.7-0.8l0.1-2.3l1.8-0.5l0.9-1.6l2.3,0.4l1.4-2.5l-1.5-1.7
				L151.2,206.9z M139.6,214.4c-4.8-0.6-8.1-5-7.5-9.8c0.6-4.8,5-8.1,9.8-7.5c4.8,0.6,8.1,5,7.5,9.8
				C148.7,211.6,144.3,215,139.6,214.4z"/>
		</g>
	</g>
</g>
</svg>
