<?xml version="1.0" encoding="utf-8"?>
<!-- Generator: Adobe Illustrator 18.1.1, SVG Export Plug-In . SVG Version: 6.00 Build 0)  -->
<svg version="1.1" id="Layer_1" xmlns="http://www.w3.org/2000/svg" xmlns:xlink="http://www.w3.org/1999/xlink" x="0px" y="0px"
	 viewBox="0 0 446 446" enable-background="new 0 0 446 446" xml:space="preserve">
<rect x="0" fill="#21519F" width="446.2" height="446.2"/>
<g>
	<polygon fill="#EFEEEE" points="73.8,259.3 85.2,259.3 85.2,231.3 108.6,231.3 108.6,221.3 85.2,221.3 85.2,204.3 110.5,204.3 
		110.5,194.1 73.8,194.1 	"/>
	<rect x="119.5" y="208.1" fill="#EFEEEE" width="12.3" height="51.1"/>
	<path fill="#EFEEEE" d="M125.3,186.4c-3.9,0-6.8,2.9-6.8,6.8c0,3.8,2.8,6.7,6.6,6.7c2,0,3.8-0.7,5.1-2c1.2-1.2,1.8-2.9,1.8-4.7
		C132,189.2,129.2,186.4,125.3,186.4z"/>
	<path fill="#EFEEEE" d="M166.5,207c-6.4,0-11.2,2.6-14.3,5.8l-0.3-4.7h-11.4l0.1,2c0.3,3.6,0.4,7.4,0.4,12.7v36.5h12.3v-30.4
		c0-1.3,0.2-2.6,0.5-3.5c1.1-3.7,4.6-7.5,9.8-7.5c6.1,0,9.1,4.1,9.1,12.2v29.2h12.3V229C185.1,212.8,175.1,207,166.5,207z"/>
	<path fill="#EFEEEE" d="M237.2,245.7v-56.6h-11.8v24.2c-3.1-2.6-7.3-4.1-12.1-4.1c-5.6,0-10.8,2.2-14.8,6.2
		c-4.8,4.8-7.4,11.9-7.3,20c0,14.4,8.9,24.8,21.2,24.8c5.6,0,10.6-2.1,14.1-5.7l0.2,4.7h11l-0.2-1.9
		C237.3,253.8,237.2,248.5,237.2,245.7z M225.4,230.6v7.9c0,1.3-0.1,2.2-0.3,3.1c-1.2,5.1-5.4,8.5-10.4,8.5c-8.6,0-11.6-7.7-11.6-15
		c0-9.6,4.6-15.7,11.8-15.7c5.7,0,9.2,4.1,10.2,8.2C225.3,228.4,225.4,229.7,225.4,230.6z"/>
	<path fill="#EFEEEE" d="M371.6,218.8v-10.2h-11v-14l-12,0v14h-7.3v10.2h7.3v23.7c0,6.5,1.2,10.8,3.7,13.4c2.4,2.8,6.1,4.2,10.6,4.2
		c3.3,0,6.2-0.5,8.3-1.3l1.2-0.5l-0.6-9.9l-2.2,0.6c-0.9,0.2-2.3,0.5-4.5,0.5c-2.2,0-4.6-0.6-4.6-7.3v-23.4H371.6z"/>
	<path fill="#EFEEEE" d="M290,177c-25.5,0-46.1,20.7-46.1,46.1s20.7,46.1,46.1,46.1s46.1-20.7,46.1-46.1S315.5,177,290,177z
		 M296.2,258.2h-12.3v-51.1h12.3V258.2z M295,197.8c-1.3,1.3-3.1,2-5.1,2c-3.8,0-6.6-2.9-6.6-6.7c0-3.9,2.9-6.8,6.8-6.8
		c3.9,0,6.7,2.8,6.7,6.8C296.8,194.9,296.2,196.6,295,197.8z"/>
</g>
</svg>
