<?xml version="1.0" encoding="utf-8"?>
<!-- Generator: Adobe Illustrator 18.1.1, SVG Export Plug-In . SVG Version: 6.00 Build 0)  -->
<svg version="1.1" id="Layer_1" xmlns="http://www.w3.org/2000/svg" xmlns:xlink="http://www.w3.org/1999/xlink" x="0px" y="0px"
	 viewBox="0 0 446 446" enable-background="new 0 0 446 446" xml:space="preserve">
<rect y="0.3" fill="#93979E" width="446" height="446"/>
<g>
	<g>
		<g>
			<path fill="#19498C" d="M363.1,255.5v15.6h-6.2c-11.1,0-20.1-9-20.1-20.1v-66.5h15.6v18.9h10.2V219h-10.2V251
				c0,2.5,2,4.5,4.5,4.5H363.1z"/>
			<g>
				<path fill="#19498C" d="M307.5,206.1l0,6.2l22.6,0l0-6.2L307.5,206.1z"/>
				<path fill="#19498C" d="M313.6,222.4l0,15.1l10.4,0l0-15.1L313.6,222.4z"/>
				<g>
					<path fill="#19498C" d="M314,214.9l0,4.9l9.6,0l0-4.9L314,214.9z"/>
					<path fill="#19498C" d="M307.5,214.9l0,4.9l4.8,0l0-4.9L307.5,214.9z"/>
					<path fill="#19498C" d="M325.3,214.9l0,4.9l4.8,0l0-4.9L325.3,214.9z"/>
				</g>
				<path fill="#19498C" d="M311.3,180.8l0,2.2l14.5,0l0-2.2l-5.4,0c-0.2,0-0.4-0.2-0.4-0.4l0-0.9l-0.8,0c-0.2,0-0.4-0.2-0.4-0.4
					l0-0.7l-0.5,0l0,0.7c0,0.2-0.2,0.4-0.4,0.4l-0.8,0l0,0.9c0,0.2-0.2,0.4-0.4,0.4l-3.1,0c-0.1,0-0.2,0-0.3-0.1l0,0
					c-0.1-0.1-0.1-0.2-0.1-0.3l0-0.5c0-2.6,2.1-4.7,4.7-4.8c0.1,0,0.2,0,0.3,0.1c0.1,0,0.1,0.2,0.1,0.3l0,0.1l0.5,0v-0.1
					c0-0.1,0-0.2,0.1-0.3c0.1-0.1,0.2-0.1,0.3-0.1l0.7,0l0-0.4l-2,0c-1.4,0-2.7,0.5-3.6,1.5c-1,1-1.5,2.3-1.5,3.6l0,0.5
					c0,0.2-0.2,0.4-0.4,0.4L311.3,180.8z"/>
				<g>
					<polygon fill="#19498C" points="328.9,204.2 330.5,204.6 328.9,205 308.7,205 307.1,204.6 308.7,204.2 					"/>
					<polygon fill="#19498C" points="328.9,203.2 330.5,203.6 328.9,204 308.7,204 307.1,203.6 308.7,203.2 					"/>
				</g>
				<g>
					<polygon fill="#19498C" points="325.3,185.6 326.9,185.9 325.3,186.2 312.3,186.2 310.8,185.9 312.3,185.6 					"/>
					<polygon fill="#19498C" points="325.3,184.4 326.9,184.7 325.3,185.1 312.3,185.1 310.8,184.7 312.3,184.4 					"/>
					<polygon fill="#19498C" points="325.3,189.1 326.9,189.4 325.3,189.8 312.3,189.8 310.8,189.4 312.3,189.1 					"/>
					<polygon fill="#19498C" points="325.3,186.8 326.9,187.1 325.3,187.4 312.3,187.4 310.8,187.1 312.3,186.8 					"/>
					<polygon fill="#19498C" points="325.3,190.3 326.9,190.6 325.3,190.9 312.3,190.9 310.8,190.6 312.3,190.3 					"/>
					<polygon fill="#19498C" points="325.3,187.9 326.9,188.3 325.3,188.6 312.3,188.6 310.8,188.3 312.3,187.9 					"/>
					<polygon fill="#19498C" points="325.3,192.6 326.9,193 325.3,193.3 312.3,193.3 310.8,193 312.3,192.6 					"/>
					<polygon fill="#19498C" points="325.3,191.5 326.9,191.8 325.3,192.1 312.3,192.1 310.8,191.8 312.3,191.5 					"/>
					<polygon fill="#19498C" points="325.3,195 326.9,195.3 325.3,195.6 312.3,195.6 310.8,195.3 312.3,195 					"/>
					<polygon fill="#19498C" points="325.3,193.8 326.9,194.1 325.3,194.5 312.3,194.5 310.8,194.1 312.3,193.8 					"/>
					<polygon fill="#19498C" points="325.3,198.5 326.9,198.8 325.3,199.1 312.3,199.2 310.8,198.8 312.3,198.5 					"/>
					<polygon fill="#19498C" points="325.3,196.2 326.9,196.5 325.3,196.8 312.3,196.8 310.8,196.5 312.3,196.2 					"/>
					<polygon fill="#19498C" points="325.3,199.7 326.9,200 325.3,200.3 312.3,200.3 310.8,200 312.3,199.7 					"/>
					<polygon fill="#19498C" points="325.3,197.3 326.9,197.7 325.3,198 312.3,198 310.8,197.7 312.3,197.3 					"/>
					<polygon fill="#19498C" points="325.3,202 326.9,202.3 325.3,202.7 312.3,202.7 310.8,202.3 312.3,202 					"/>
					<polygon fill="#19498C" points="325.3,200.8 326.9,201.2 325.3,201.5 312.3,201.5 310.8,201.2 312.3,200.8 					"/>
				</g>
				<g>
					<path fill="#19498C" d="M314.6,250.8c0.1,0.1,0.1,0.2,0.1,0.3l0,1.2c0,0.2-0.2,0.4-0.4,0.4l-0.3,0c-0.3,0-0.6,0.1-0.8,0.3
						c-0.2,0.2-0.3,0.5-0.3,0.8c0,0.6,0.5,1.2,1.2,1.2l9.6,0c0.6,0,1.2-0.5,1.2-1.2l0,0c0-0.6-0.5-1.2-1.2-1.2l-0.3,0
						c-0.1,0-0.2,0-0.3-0.1l0,0c-0.1-0.1-0.1-0.2-0.1-0.3l0-1.2c0-0.2,0.2-0.4,0.4-0.4l0.3,0c0.6,0,1.2-0.5,1.2-1.2
						c0-0.3-0.1-0.6-0.3-0.8l0,0c-0.2-0.2-0.5-0.3-0.8-0.3l-0.3,0c-0.2,0-0.4-0.2-0.4-0.4l0-1.2c0-0.1,0-0.2,0.1-0.3
						c0.1-0.1,0.2-0.1,0.3-0.1l0.3,0c0.6,0,1.2-0.5,1.2-1.2c0-0.6-0.5-1.2-1.2-1.2l-0.3,0c-0.1,0-0.2,0-0.3-0.1l0,0
						c-0.1-0.1-0.1-0.2-0.1-0.3l0-1.2c0-0.2,0.2-0.4,0.4-0.4l0.3,0c0.6,0,1.2-0.5,1.2-1.2c0-0.6-0.5-1.2-1.2-1.2l-0.3,0
						c-0.2,0-0.4-0.2-0.4-0.4l0-0.2l-8.2,0v0.2c0,0.2-0.2,0.4-0.4,0.4l-0.3,0c-0.6,0-1.2,0.5-1.2,1.2c0,0.6,0.5,1.2,1.2,1.2l0.3,0
						c0.2,0,0.4,0.2,0.4,0.4l0,1.2c0,0.2-0.2,0.4-0.4,0.4l-0.3,0c-0.6,0-1.2,0.5-1.2,1.2c0,0.3,0.1,0.6,0.3,0.8l0,0
						c0.2,0.2,0.5,0.3,0.8,0.3l0.3,0c0.2,0,0.4,0.2,0.4,0.4l0,1.2c0,0.1,0,0.2-0.1,0.3c-0.1,0.1-0.2,0.1-0.3,0.1l-0.3,0
						c-0.6,0-1.2,0.5-1.2,1.2c0,0.6,0.5,1.2,1.2,1.2l0.3,0C314.4,250.7,314.5,250.7,314.6,250.8z"/>
					<path fill="#19498C" d="M316.5,261.8c0.1,0.1,0.1,0.2,0.1,0.3l0,2.4c0,0.1-0.1,0.3-0.2,0.3c-1,0.7-1.5,1.8-1.5,3
						c0,0.9,0.3,1.7,0.8,2.4l5.9,0c0.5-0.7,0.8-1.5,0.8-2.4l0,0c0-1.2-0.5-2.3-1.5-3c-0.1-0.1-0.2-0.2-0.2-0.3l0-2.4
						c0-0.2,0.1-0.3,0.2-0.4c0.7-0.4,1.1-1,1.1-1.8l0-3.5l-6.8,0l0,3.5C315.4,260.7,315.8,261.4,316.5,261.8
						C316.5,261.8,316.5,261.8,316.5,261.8z"/>
				</g>
				<path fill="#19498C" d="M327.9,212.5c-0.1-0.1-0.3-0.2-0.4-0.2l-17.3,0c-0.2,0-0.3,0.1-0.4,0.2c-0.1,0.1-0.2,0.3-0.2,0.4
					c0,0.2,0.1,0.3,0.2,0.4l0,0c0.1,0.1,0.3,0.2,0.4,0.2l0,0l17.3,0c0.2,0,0.3-0.1,0.4-0.2c0.1-0.1,0.2-0.3,0.2-0.4
					C328.1,212.8,328,212.6,327.9,212.5z"/>
				<path fill="#19498C" d="M309.7,221.2c0.2,0.7,0.8,1.2,1.5,1.2l15.1,0c0.4,0,0.8-0.2,1.1-0.5c0.2-0.2,0.3-0.4,0.4-0.7
					L309.7,221.2z"/>
			</g>
		</g>
	</g>
	<g>
		<path fill="#FFFFFF" d="M108.5,177.4h161V191H114.2c-8.4,0-15.1,6.8-15.1,15.1v10h29.1v16.2H99.1V271H82.9v-68
			C82.9,188.9,94.4,177.4,108.5,177.4z"/>
		<path fill="#FFFFFF" d="M133,271v-49.8h15.4V271H133z"/>
		<path fill="#FFFFFF" d="M219.7,235.2v35.7h-15.6v-35.7c0-11.1-8.1-20.2-18.1-20.2s-18.1,9-18.1,20.2V271h-15.6v-35.9
			c0-19.7,15.1-35.8,33.7-35.8C204.5,199.4,219.7,215.5,219.7,235.2z"/>
		<path fill="#FFFFFF" d="M288.9,177.4v92.4h-15.4v-2.5c-4.9,2.9-10.6,4.6-16.6,4.6c-18.6,0-33.7-16.1-33.7-35.8
			s15.1-35.7,33.7-35.7c6,0,11.7,1.7,16.6,4.6v-27.6H288.9z M273.5,236C273.5,236,273.5,236,273.5,236c0-0.6,0-1.1-0.1-1.7
			c0-0.3,0-0.6-0.1-0.8c0-0.2,0-0.3-0.1-0.5c-0.2-1.9-0.7-3.6-1.3-5.3c-1.7-4.6-5.1-9.2-11-11c-1.2-0.4-2.5-0.7-3.9-0.7
			c0,0-0.1,0-0.1,0c0,0-0.1,0-0.1,0c-0.2,0-0.4,0-0.6,0c-0.2,0-0.3,0-0.5,0c-0.4,0-0.8,0-1.3,0.1c0,0-0.1,0-0.1,0
			c-2.3,0.3-4.5,1.1-6.4,2.3c0,0-0.1,0-0.1,0.1c-0.4,0.3-0.8,0.6-1.2,0.9c-0.3,0.2-0.6,0.5-0.9,0.8c-0.1,0.1-0.2,0.2-0.3,0.3
			c-4,3.7-6.6,9.4-6.6,15.8c0,0,0,0,0,0c0,0,0,0,0,0c0,0,0,0,0,0.1c0,10.7,7.2,19.4,16.3,20.1c0,0,0,0,0,0c0.4,0,0.7,0.1,1.1,0.1
			c0.1,0,0.2,0,0.3,0c0.1,0,0.3,0,0.4,0c0.3,0,0.6-0.1,0.9-0.1c0,0,0.1,0,0.1,0c3.3-0.3,6.1-1.7,8.3-3.7
			C270.6,248.8,273.5,242.9,273.5,236C273.5,236.1,273.5,236,273.5,236z"/>
		<g>
			<path fill="#FFFFFF" d="M140.7,214.4c-4.6,0-8.3-3.7-8.3-8.3c0-4.6,3.7-8.3,8.3-8.3c4.6,0,8.3,3.7,8.3,8.3
				C149,210.6,145.3,214.4,140.7,214.4z"/>
		</g>
	</g>
</g>
</svg>
