<?xml version="1.0" encoding="utf-8"?>
<!-- Generator: Adobe Illustrator 18.1.1, SVG Export Plug-In . SVG Version: 6.00 Build 0)  -->
<svg version="1.1" id="Layer_1" xmlns="http://www.w3.org/2000/svg" xmlns:xlink="http://www.w3.org/1999/xlink" x="0px" y="0px"
	 viewBox="0 0 446 446" enable-background="new 0 0 446 446" xml:space="preserve">
<rect x="0" fill="#1B4583" width="446" height="446"/>
<g>
	<path fill="#FFFFFF" d="M101.9,261.3v8h-9.4v-65.8h50.2v8h-40.8V244c0,0,8.6-17.1,34.4-17.1l0.1,8.3
		C107.4,235.2,101.9,261.3,101.9,261.3z"/>
	<path fill="#F89521" d="M147.7,210.3c0-3.3,2.6-5.8,5.9-5.8s5.9,2.5,5.9,5.8c0,3.2-2.6,5.7-5.9,5.7S147.7,213.5,147.7,210.3z"/>
	<rect x="149.1" y="223" fill="#FFFFFF" width="9.5" height="46.6"/>
	<path fill="#FFFFFF" d="M174.8,269.5h-9.4V223h9.4v25c0,0,6-28.4,23-25.9c7.7,1.2,11.1,9,11.1,22.3c0,25.1,0,25.1,0,25.1h-9.5
		v-24.4c0,0,0.5-13.6-4.8-14.2C183.1,229.7,174.8,269.5,174.8,269.5z"/>
	<path fill="#FFFFFF" d="M253,240c-2.3-5.9-8.2-10-14.6-10c-8.6,0-15.8,7.3-15.8,16.3c0,8.9,6.2,16.8,16.5,15.5
		c8.7-1.1,12.1-12,18.2-11.9c10.6,0.1,6.9,19.7,6.9,19.7h-9.2c0,0,2.2-9.3-0.6-9.1c-3.1,0.1-5.9,8.3-15.8,9.9
		c-14.8,2.3-25.7-10.9-25.7-24.2c0-13.3,11.2-25,24.9-24.2c6.4,0.4,11.3,3,15.3,6.8v-24.2h9.4V240H253z"/>
	<path fill="#FFFFFF" d="M340.1,232.1v23.7c0,2.6,0.7,4.3,2,5.4c1.3,0.7,3.1,1.2,5.6,1.2c1.2,0,2,0,2.9-0.2l3-0.5v8.2l-2.1,0.3
		c-1.1,0.1-2.3,0.2-3.7,0.2c-4.8,0-8.9-1.2-11.8-3.4c-3.4-2.5-5.1-6.2-5.1-11.2v-25.4c-6.8-1.1-13.4,0.5-13.4,0.5V223
		c16.2-7.1,14.9-23.1,14.9-23.1h8.4c0,11.9-5.2,19.4-10.7,23.1c0,0,13-0.7,19.1,5v9.2C344.5,232.8,340.1,232.1,340.1,232.1z"/>
	<g>
		<g>
			<g>
				<path fill="#F89521" d="M273.6,166.7c-6.3-0.8-12.1,3.7-12.9,10c-0.8,6.3,3.7,12.1,10,12.9c6.3,0.8,12.1-3.7,12.9-10
					C284.3,173.3,279.9,167.5,273.6,166.7z M274.3,185.8c-4.2,1.2-8.6-1.2-9.8-5.4c-1.2-4.2,1.2-8.6,5.4-9.8
					c4.2-1.2,8.6,1.2,9.8,5.4C280.9,180.2,278.5,184.6,274.3,185.8z"/>
				<path fill="#F89521" d="M287.7,179.9l-0.8-2.7l2.8-2l-1.2-4.1l-3.4-0.2l-0.8-2.7L282,167l0.6-3.4l-3.7-2l-2.6,2.3l-2.4-1.3
					l-2.7,0.8l-2-2.8l-4.1,1.2l-0.2,3.4l-2.7,0.8l-1.3,2.4l-3.4-0.6l-2,3.7l2.3,2.6l-1.3,2.4l0.8,2.7l-2.8,2l1.2,4.1l3.4,0.2
					l0.8,2.7l2.4,1.3l-0.6,3.4l3.7,2l2.6-2.3l2.4,1.3l2.7-0.8l2,2.8l4.1-1.2l0.2-3.4l2.7-0.8l1.3-2.4l3.4,0.6l2-3.7l-2.3-2.6
					L287.7,179.9z M270.4,191.1c-7.1-0.9-12.2-7.5-11.3-14.6c0.9-7.1,7.5-12.2,14.6-11.3c7.1,0.9,12.2,7.5,11.3,14.6
					C284.1,187,277.5,192,270.4,191.1z"/>
			</g>
		</g>
		<g>
			<g>
				<path fill="#0C1E39" d="M260.7,145.5c-17.4,5.9-27,24.8-21.5,42.3c4.7,14.8,18.5,24.1,33.2,23.6c1.8-0.1,3.6-0.2,5.4-0.6l3,9.3
					c-1.6,1.5-2.3,3.9-1.6,6.2l0.5,1.7c0.2,0.7,0.9,1.1,1.6,0.8l0.2-0.1l1.3,4c-0.8,0.3-1.2,1.1-1,1.9l11.4,35.5
					c1,3.1,4.4,4.9,7.5,3.9l2.6-0.8c3.1-1,4.9-4.4,3.9-7.5L295.9,230c-0.2-0.7-0.9-1.1-1.6-0.8l-1.3-4c0.7-0.2,1.1-0.9,0.8-1.6
					l-0.5-1.7c-0.7-2.2-2.5-3.7-4.6-4.1l-3-9.4c13.1-6,20.9-19.8,19.5-33.9c-0.2-2.4-0.7-4.8-1.5-7.2
					C298,149.3,278.7,139.5,260.7,145.5z M280.1,204.3c-10.3,3.3-21.2,0.3-28.4-6.9c0,0,0,0,0,0c-3.1-3.1-5.5-6.9-6.9-11.3
					c-4.7-14.7,3.4-30.6,18.2-35.3c9.2-2.9,18.8-0.9,25.9,4.7c4.3,3.3,7.6,8,9.4,13.5C303,183.8,294.8,199.6,280.1,204.3z"/>
			</g>
		</g>
	</g>
	<path fill="#F89521" d="M301.8,210.3c0-3.3,2.6-5.8,5.9-5.8s5.9,2.5,5.9,5.8c0,3.2-2.6,5.7-5.9,5.7S301.8,213.5,301.8,210.3z"/>
	<rect x="303.1" y="223" fill="#FFFFFF" width="9.5" height="46.6"/>
</g>
</svg>
