<?xml version="1.0" encoding="utf-8"?>
<!-- Generator: Adobe Illustrator 18.1.1, SVG Export Plug-In . SVG Version: 6.00 Build 0)  -->
<svg version="1.1" id="Layer_1" xmlns="http://www.w3.org/2000/svg" xmlns:xlink="http://www.w3.org/1999/xlink" x="0px" y="0px"
	 viewBox="0 0 446 446" enable-background="new 0 0 446 446" xml:space="preserve">
<g>
	<path fill="#21519F" d="M112.2,193.4H87.7v5.5h18v28.4h-18v51.8H59.3V165l52.9,0V193.4z"/>
	<path fill="#21519F" d="M114.4,190.1h28.4v89.1h-28.4V190.1z"/>
	<path fill="#21519F" d="M177.2,279.2l-28.4,0v-100h28.4v14.7h1.1c0.6-10.7,7.4-15.9,15.8-15.8c10.8,0,14.9,7.7,16.1,16.1
		c0.2,1.6-0.1,3.2,0,4.7v80.3h-29.7v-73.5c0-1.8-1.5-3.2-3.2-3.2L177.2,279.2L177.2,279.2z"/>
	<path fill="#21519F" d="M276.6,161.2v118h-26.1l4-19.7h-1.1c0,0-0.9,3.3-2.7,8.8c-2.8,8.2-8.9,10.9-17.1,10.9
		c-8.4,0-18.5-8-18.4-25.4v-54.9c0.6-9.9,3.2-20.8,16.1-20.8c8.3,0,15.1,5.1,15.8,15.8h1.1v-32.7H276.6z M248.2,202.5
		c-1.8,0-3.3,1.5-3.3,3.3v45.9c0,1.8,1.5,3.3,3.3,3.3V202.5z"/>
	<path fill="#21519F" d="M381.1,179.3h10.1v19.7h-10.1v47.9c0,2.2,1.8,3.9,3.9,3.9h6.2v28.4h-11.8c-7.1,0-13.9-2.8-19-7.8
		c-5-5-7.9-11.8-7.9-19v-53.5h-3.8v-19.7h3.9c5.4,0,8.7-4.6,8.7-12h19.6V179.3z"/>
	<g>
		<path fill="#93979E" d="M305.5,184.8l0,10.2l37.2,0l0-10.2L305.5,184.8z"/>
		<path fill="#93979E" d="M315.6,211.6l0,24.8l17.1,0l0-24.8L315.6,211.6z"/>
		<g>
			<path fill="#93979E" d="M316.3,199.3l0,8.1l15.8,0l0-8.1L316.3,199.3z"/>
			<path fill="#93979E" d="M305.5,199.3l0,8.1l7.9,0l0-8.1L305.5,199.3z"/>
			<path fill="#93979E" d="M334.8,199.3l0,8.1l7.9,0l0-8.1L334.8,199.3z"/>
		</g>
		<path fill="#93979E" d="M311.9,143.3l0,3.6l23.9,0l0-3.6l-8.9,0c-0.4,0-0.7-0.3-0.7-0.7l0-1.5l-1.3,0c-0.4,0-0.7-0.3-0.7-0.7
			l0-1.1l-0.8,0l0,1.1c0,0.4-0.3,0.7-0.7,0.7l-1.3,0l0,1.5c0,0.4-0.3,0.7-0.7,0.7l-5.1,0c-0.2,0-0.4-0.1-0.5-0.2l0,0
			c-0.1-0.1-0.2-0.3-0.2-0.5l0-0.8c0-4.2,3.5-7.8,7.7-7.8c0.2,0,0.4,0.1,0.5,0.2c0.1,0.1,0.2,0.3,0.2,0.5l0,0.2l0.8,0v-0.2
			c0-0.2,0.1-0.4,0.2-0.5c0.1-0.1,0.3-0.2,0.5-0.2l1.1,0l0-0.6l-3.2,0c-2.3,0-4.4,0.9-6,2.5c-1.6,1.6-2.5,3.7-2.5,6l0,0.8
			c0,0.4-0.3,0.7-0.7,0.7L311.9,143.3z"/>
		<g>
			<polygon fill="#93979E" points="340.7,181.7 343.4,182.4 340.7,183 307.5,183.1 304.8,182.4 307.5,181.7 			"/>
			<polygon fill="#93979E" points="340.7,180.1 343.4,180.7 340.7,181.4 307.5,181.4 304.8,180.7 307.5,180.1 			"/>
		</g>
		<g>
			<polygon fill="#93979E" points="334.8,151.2 337.3,151.7 334.8,152.2 313.4,152.2 310.9,151.7 313.4,151.2 			"/>
			<polygon fill="#93979E" points="334.8,149.2 337.3,149.8 334.8,150.3 313.4,150.3 310.9,149.8 313.4,149.2 			"/>
			<polygon fill="#93979E" points="334.8,156.9 337.3,157.5 334.8,158 313.4,158 310.9,157.5 313.4,156.9 			"/>
			<polygon fill="#93979E" points="334.8,153.1 337.3,153.6 334.8,154.2 313.4,154.2 310.9,153.6 313.4,153.1 			"/>
			<polygon fill="#93979E" points="334.8,158.9 337.3,159.4 334.8,159.9 313.4,159.9 310.9,159.4 313.4,158.9 			"/>
			<polygon fill="#93979E" points="334.8,155 337.3,155.5 334.8,156.1 313.4,156.1 310.9,155.5 313.4,155 			"/>
			<polygon fill="#93979E" points="334.8,162.7 337.3,163.2 334.8,163.8 313.4,163.8 310.9,163.3 313.4,162.7 			"/>
			<polygon fill="#93979E" points="334.8,160.8 337.3,161.3 334.8,161.9 313.4,161.9 310.9,161.3 313.4,160.8 			"/>
			<polygon fill="#93979E" points="334.8,166.6 337.3,167.1 334.8,167.6 313.4,167.6 310.9,167.1 313.4,166.6 			"/>
			<polygon fill="#93979E" points="334.8,164.6 337.3,165.2 334.8,165.7 313.4,165.7 310.9,165.2 313.4,164.6 			"/>
			<polygon fill="#93979E" points="334.8,172.3 337.3,172.9 334.8,173.4 313.4,173.4 310.9,172.9 313.4,172.3 			"/>
			<polygon fill="#93979E" points="334.8,168.5 337.3,169 334.8,169.6 313.4,169.6 310.9,169 313.4,168.5 			"/>
			<polygon fill="#93979E" points="334.8,174.3 337.3,174.8 334.8,175.3 313.4,175.3 310.9,174.8 313.4,174.3 			"/>
			<polygon fill="#93979E" points="334.8,170.4 337.3,171 334.8,171.5 313.4,171.5 310.9,171 313.4,170.4 			"/>
			<polygon fill="#93979E" points="334.8,178.1 337.3,178.7 334.8,179.2 313.4,179.2 310.9,178.7 313.4,178.1 			"/>
			<polygon fill="#93979E" points="334.8,176.2 337.3,176.7 334.8,177.3 313.4,177.3 310.9,176.7 313.4,176.2 			"/>
		</g>
		<g>
			<path fill="#93979E" d="M317.1,258.3c0.1,0.1,0.2,0.3,0.2,0.5l0,2c0,0.4-0.3,0.7-0.7,0.7l-0.4,0c-0.5,0-1,0.2-1.4,0.6
				c-0.4,0.4-0.6,0.8-0.6,1.4c0,1,0.9,1.9,1.9,1.9l15.8,0c1.1,0,1.9-0.9,1.9-1.9l0,0c0-1.1-0.9-1.9-1.9-1.9l-0.4,0
				c-0.2,0-0.4-0.1-0.5-0.2l0,0c-0.1-0.1-0.2-0.3-0.2-0.5l0-2c0-0.4,0.3-0.7,0.7-0.7l0.4,0c1.1,0,1.9-0.9,1.9-1.9
				c0-0.5-0.2-1-0.6-1.4l0,0c-0.4-0.4-0.8-0.6-1.4-0.6l-0.4,0c-0.4,0-0.7-0.3-0.7-0.7l0-2c0-0.2,0.1-0.4,0.2-0.5
				c0.1-0.1,0.3-0.2,0.5-0.2l0.4,0c1.1,0,1.9-0.9,1.9-1.9c0-1.1-0.9-1.9-1.9-1.9l-0.4,0c-0.2,0-0.4-0.1-0.5-0.2l0,0
				c-0.1-0.1-0.2-0.3-0.2-0.5l0-2c0-0.4,0.3-0.7,0.7-0.7l0.4,0c1.1,0,1.9-0.9,1.9-1.9c0-1-0.9-1.9-1.9-1.9l-0.4,0
				c-0.4,0-0.7-0.3-0.7-0.7l0-0.4l-13.5,0l0,0.4c0,0.4-0.3,0.7-0.7,0.7l-0.4,0c-1.1,0-1.9,0.9-1.9,1.9c0,1,0.9,1.9,1.9,1.9l0.4,0
				c0.4,0,0.7,0.3,0.7,0.7l0,2c0,0.4-0.3,0.7-0.7,0.7l-0.4,0c-1.1,0-1.9,0.9-1.9,1.9c0,0.5,0.2,1,0.6,1.4l0,0
				c0.4,0.4,0.8,0.6,1.4,0.6l0.4,0c0.4,0,0.7,0.3,0.7,0.7l0,2c0,0.2-0.1,0.4-0.2,0.5c-0.1,0.1-0.3,0.2-0.5,0.2l-0.4,0
				c-1.1,0-1.9,0.9-1.9,1.9c0,1.1,0.9,1.9,1.9,1.9l0.4,0C316.8,258.1,317,258.1,317.1,258.3z"/>
			<path fill="#93979E" d="M320.4,276.4c0.1,0.1,0.2,0.3,0.2,0.5l0,3.9c0,0.2-0.1,0.4-0.3,0.6c-1.6,1.2-2.5,3-2.5,4.9
				c0,1.4,0.5,2.8,1.4,3.9l9.7,0c0.9-1.1,1.4-2.5,1.4-3.9l0,0c0-1.9-0.9-3.7-2.5-4.9c-0.2-0.1-0.3-0.3-0.3-0.6l0-3.9
				c0-0.3,0.1-0.5,0.4-0.6c1.1-0.6,1.7-1.7,1.7-2.9l0-5.8l-11.2,0l0,5.8c0,1.2,0.7,2.3,1.7,2.9C320.3,276.3,320.3,276.3,320.4,276.4
				z"/>
		</g>
		<path fill="#93979E" d="M339.1,195.3c-0.2-0.2-0.4-0.3-0.7-0.3l-28.5,0c-0.3,0-0.5,0.1-0.7,0.3c-0.2,0.2-0.3,0.4-0.3,0.7
			c0,0.3,0.1,0.5,0.3,0.7l0,0c0.2,0.2,0.4,0.3,0.7,0.3l0,0l28.5,0c0.3,0,0.5-0.1,0.7-0.3c0.2-0.2,0.3-0.4,0.3-0.7
			C339.4,195.8,339.3,195.5,339.1,195.3z"/>
		<path fill="#93979E" d="M309.2,209.7c0.3,1.1,1.3,1.9,2.5,1.9l24.7,0c0.7,0,1.4-0.3,1.9-0.8c0.3-0.3,0.6-0.7,0.7-1.2L309.2,209.7z
			"/>
	</g>
	<g>
		<path fill="#21519F" d="M129.4,165.9c-4.8,0-8.7,3.9-8.7,8.7c0,4.8,3.9,8.7,8.7,8.7c4.8,0,8.7-3.9,8.7-8.7
			C138.1,169.8,134.2,165.9,129.4,165.9z M131.8,180.1c-3,1.3-6.6-0.1-7.9-3.1c-1.3-3,0.1-6.6,3.1-7.9c3-1.3,6.6,0.1,7.9,3.1
			C136.2,175.3,134.8,178.8,131.8,180.1z"/>
		<path fill="#21519F" d="M141.3,174.4l-0.8-1.9l1.9-1.8l-1.3-2.9l-2.6,0.2l-0.8-1.9l-1.9-0.8l0.1-2.6l-3-1.2l-1.7,2l-1.9-0.8
			l-1.9,0.8l-1.8-1.9l-2.9,1.3l0.2,2.6l-1.9,0.8l-0.8,1.9l-2.6-0.1l-1.2,3l2,1.7l-0.8,1.9l0.8,1.9l-1.9,1.8l1.3,2.9l2.6-0.2l0.8,1.9
			l1.9,0.8l-0.1,2.6l3,1.2l1.7-2l1.9,0.8l1.9-0.8l1.8,1.9l2.9-1.3l-0.2-2.6l1.9-0.8l0.8-1.9l2.6,0.1l1.2-3l-2-1.7L141.3,174.4z
			 M129.4,184.5c-5.5,0-9.9-4.4-9.9-9.9c0-5.5,4.4-9.9,9.9-9.9c5.5,0,9.9,4.4,9.9,9.9C139.3,180.1,134.8,184.5,129.4,184.5z"/>
	</g>
</g>
</svg>
