<?xml version="1.0" encoding="utf-8"?>
<!-- Generator: Adobe Illustrator 18.1.1, SVG Export Plug-In . SVG Version: 6.00 Build 0)  -->
<svg version="1.1" id="Layer_1" xmlns="http://www.w3.org/2000/svg" xmlns:xlink="http://www.w3.org/1999/xlink" x="0px" y="0px"
	 viewBox="0 0 446 446" enable-background="new 0 0 446 446" xml:space="preserve">
<g>
	<path fill-rule="evenodd" clip-rule="evenodd" fill="#21519F" d="M314.6,178.5c0,0-54-25.7-119.6-18.7c6.8,5,19.5,15.5,33.8,31.7
		c37.2-4.6,195.8-18.6,208.4,35.4c0,0-5.4-7-10.9-9.8c-14.6,0-29.2,2.1-43.9,6.4c0,0-2.5,4.4-3.6,13.7c-5.6-0.4-11.2-0.7-16.9-1.1
		c-18.5-1.1-37.8-2-57.4-2.8c-15.5-21.1-43.5-18.9-53.8-2.6c1.4-5.3,5.2-15.4,22.6-17c-26.9-5-84.2,22.9-161.9,13.1
		c-10.3-1.3-27.5-7.6-38.4-11.1c-9.9-3.2-21.6-0.8-26.4,13.2c0,0-1.5-18,18.4-20.3c0,0-22.5-2.1-23.7,21.9c-1.9,0.2-4.1,0.1-6.1-0.1
		c-2.8-0.2-5.1-1.4-6.8-3.6c-1.7-2.2-2.5-4.6-2.1-7.4c1.1-8.5,3.7-18.7,9.5-28.4c0,0,2.2-3.8,5.4-4.2c3.2-0.5,7.4-1,7.4-1
		c-1.9-1.5-7.7,0.3-7.5-4c0.2-3.5-0.6-5.4,1.4-6.7c2.1-1.4,10,1,10.5,1.9c0.3,0.5,3.1,5.2,3.1,5.2c4.4-0.1,12.6-0.5,16.1-0.4
		l5.4-2.9c-7.1,0.5-16.4,1.4-20.7,2.5c-0.3-0.7-1.1-1.7-1.5-2.4c6-1.6,21.9-2.6,27.6-3l7.1-3.8c66.8-30.3,167-36.5,230.7,7.7
		c-31.3-13.2-58.1-28-130.5-23.8c0,0,0.7,0.4,1.9,1.3C258.3,153.7,286,166.1,314.6,178.5L314.6,178.5z M296.9,211.3
		c17.4,7.7,29.3,18.7,29.3,18.7l26.5,1.6c1.3-4,1.7-7.5-2.9-9.3c3.2,2.1,2.6,4.8,1.4,8l-22.5-1.3l19.6,0.2c0,0,1.6-1.3,0.9-5.4
		c-0.7-4.1-32.1-14.8-46.3-17.2c-14.2-2.4-25.1-1.5-25.1-1.5c3,0.6,5.9,1.3,8.7,2.2l0,0c2,0,4.4,0.1,7.1,0.3
		c8.9,1.1,18.3,2.9,27.1,5.3c0,0,0,0,0,0c3.2,0.9,6.4,2,9.6,3.1c5.8,2.1,11.4,4.7,16,8C332.8,217.3,314.2,213.1,296.9,211.3
		L296.9,211.3z M48.9,232.4c4-11.8,15.6-15.7,24.4-14.9c0,0-0.1,0-0.1,0C61.5,214,50.3,219,48.9,232.4L48.9,232.4z M255.6,216.5
		c-30.9,4.2-80.2,20.6-142.5,12.7c-5.1-0.6-11.8-2.5-18.6-4.6C132.6,244.8,201.1,232.4,255.6,216.5L255.6,216.5z M47.1,174.3
		c1.6,0.5,4.8,1,6.5,2.2c0.5,0.3,0.8,1.2,0.8,1.2c6.4-1.7,24.1-2.8,28.6-3.1c0,0,5.2-2.7,7-4C73,169.2,47.1,174.3,47.1,174.3
		L47.1,174.3z M433.5,225.2l-0.2-0.2l-39.1,5.2l37.9-6.4c-0.1-0.1-0.2-0.2-0.3-0.3l-38.8,5.1l37.5-6.3c-0.1-0.1-0.2-0.2-0.4-0.3
		l-38.5,5.1l37.1-6.3c-0.1-0.1-0.3-0.2-0.4-0.3l-39.3,5.2l37.6-6.4c-0.2-0.1-0.4-0.3-0.6-0.4c-14.2,1.1-27.4,2.6-42.4,6.2
		c-0.3,0.8-0.7,1.6-0.9,2.3c-0.8,2.4-1.4,5-1.8,7.6l32.2-5.7l-18,2.4L433.5,225.2L433.5,225.2z M419.8,211.9
		c0,0-48.1-31.4-183.2-14.7c0,0,8.7-0.6,21.9-0.9c102.8-9.6,148.9,10.1,159.6,15.6C418.6,211.9,419.2,211.9,419.8,211.9L419.8,211.9
		z M295.6,196.4c34.6,1.2,73.6,6,84.2,21.1c11.7-4.2,24-5.5,34.6-5.7C399.9,205.6,363.4,194.1,295.6,196.4L295.6,196.4z
		 M200.1,192.6c0.3,0,0.5,0,0.8,0.1c0-1.4,0-3.8-0.4-5.4c0.4,0.3,0.7,0.7,0.9,1c0.7,0.8,0.9,2.8,1,4.5c4.2,0.2,8.8-0.1,13.3-0.3
		c-17.1-21.7-35.9-34-35.9-34c-38.1,1.2-64.8,11.4-66.7,12.2c-4.8,2.1-9.4,8.3-12.9,12.2c-0.9,1-1.4,1.8-1.6,2.3
		c-1.1-0.4-1.3-1.3,0.8-3.7c3.5-3.9,8.1-10.1,12.9-12.2c1.9-0.8,28.6-11,66.7-12.2c0,0,19.5,12.8,36.9,35.4l-0.2,0
		c-9.1-12.3-35.7-31.5-35.7-31.5c-37.4,1.4-63.5,11.3-65.4,12.2c-4.8,2.1-9.4,8.3-12.9,12.2c-0.1,0.1-0.2,0.2-0.3,0.3
		c0.2,0,0.4,0,0.5,0l73.6,5.8l13.5,1c-2.1-0.4-13.8-1.4-14-2.2c-0.8-2.8-0.2-5.8-0.2-5.8c0.8-2,7.8-5.4,13-5.2
		c5.2,0.3,9.7,3.6,11.1,5.3C200.4,186.2,200.1,192.6,200.1,192.6z"/>
	<path fill-rule="evenodd" clip-rule="evenodd" fill="#21519F" d="M299.9,281.2l-1.1-0.3c-11.6,7.3-28.7,6.3-37.7,2.5
		c-14.3-6.1-11.2-14.2-41.3-15.1c-47.5-1.4-105.8-14.1-147.6-38c35.3,26.8,105.1,39.7,147.8,41.2c29,1,26.2,9,40.3,15.1
		c9.6,4.1,28.4,4.9,39.9-4c0.2-0.2,0.3-0.5,0.3-0.7C300.4,281.5,300.2,281.3,299.9,281.2L299.9,281.2z M274.6,258
		c0.7-3.9,2.7-8.4,7.1-13.1c2-2.2,4.9-3.1,7.8-2.4l16.7,3.7c0.6,0.8,1.1,1.6,1.7,2.4c0.2,0.3,0.2,0.6,0,0.9
		c-0.2,0.3-0.5,0.4-0.8,0.3c-6.1-1.3-12.3-2.7-18.4-4c-2.9-0.6-5.7,0.2-7.8,2.4C277.6,251.5,275.6,254.9,274.6,258z"/>
	<path fill-rule="evenodd" clip-rule="evenodd" fill="#93979E" d="M300.1,276.5c-6.4-1.7-12.8-3.5-19.2-5.2
		c-3.2-0.9-5.6-3.2-6.5-6.4c-1.4-4.9-1.5-12.8,6.7-21.6c2-2.2,4.9-3.1,7.8-2.4c6.1,1.3,12.3,2.7,18.4,4c0.3,0.1,0.6-0.1,0.8-0.3
		c0.2-0.3,0.2-0.6,0-0.9c-12.8-18.9-30.3-28.9-50.9-11.7c-2.9,2.5-6.9,4.5-11.3,6c-45.6,15.8-133.5,4.8-183.6-15.3
		c37.9,28.3,112.8,42.2,158.5,43.9c28.5,1.1,25.8,9,39.8,15.1c9.6,4.1,28.4,4.9,39.9-4c0.2-0.2,0.3-0.5,0.3-0.7
		C300.6,276.8,300.4,276.6,300.1,276.5z"/>
</g>
</svg>
