<?xml version="1.0" encoding="utf-8"?>
<!-- Generator: Adobe Illustrator 18.1.1, SVG Export Plug-In . SVG Version: 6.00 Build 0)  -->
<svg version="1.1" id="Layer_1" xmlns="http://www.w3.org/2000/svg" xmlns:xlink="http://www.w3.org/1999/xlink" x="0px" y="0px"
	 viewBox="0 0 612 575" enable-background="new 0 0 612 575" xml:space="preserve">
<g>
	<path fill="#204F9F" d="M168.7,247.5H139v6.7h21.9v34.5H139v63h-34.5V213l64.3,0V247.5z"/>
	<path fill="#204F9F" d="M171.4,243.5H206v108.3h-34.5V243.5z"/>
	<path fill="#204F9F" d="M247.6,351.7l-34.5,0V230.2h34.5v17.8h1.4c0.8-13,9-19.2,19.1-19.2c13.1,0,18.1,9.4,19.5,19.5
		c0.3,1.9-0.1,3.8,0,5.8v97.5h-36.1v-89.3c0-2.2-1.8-3.9-3.9-3.9L247.6,351.7L247.6,351.7z"/>
	<path fill="#204F9F" d="M368.4,208.5v143.3h-31.7l4.8-24h-1.4c0,0-1.1,4-3.3,10.7c-3.3,9.9-10.9,13.3-20.7,13.3
		c-10.2,0-22.4-9.7-22.3-30.9v-66.7c0.7-12.1,3.9-25.2,19.5-25.3c10.1,0,18.4,6.2,19.1,19.2h1.4v-39.7H368.4z M333.8,258.5
		c-2.2,0-3.9,1.8-3.9,3.9v55.7c0,2.2,1.8,3.9,3.9,3.9V258.5z"/>
	<path fill="#204F9F" d="M495.3,230.3h12.3v23.9h-12.3v58.2c0,2.6,2.1,4.7,4.7,4.7h7.6v34.5h-14.3c-8.6,0-16.9-3.4-23-9.5
		c-6.1-6.1-9.5-14.4-9.5-23v-65h-4.6v-23.9h4.7c6.6,0,10.6-5.6,10.6-14.6h23.8V230.3z"/>
	<g>
		<path fill="#92979E" d="M403.5,237l0,12.4l45.1,0l0-12.4L403.5,237z"/>
		<path fill="#92979E" d="M415.7,269.6l0,30.2l20.7,0l0-30.2L415.7,269.6z"/>
		<g>
			<path fill="#92979E" d="M416.5,254.7l0,9.9l19.2,0l0-9.9L416.5,254.7z"/>
			<path fill="#92979E" d="M403.5,254.7l0,9.9l9.5,0l0-9.9L403.5,254.7z"/>
			<path fill="#92979E" d="M439.1,254.7l0,9.9l9.5,0l0-9.8L439.1,254.7z"/>
		</g>
		<path fill="#92979E" d="M411.2,186.7l0,4.4l29,0l0-4.4l-10.8,0c-0.5,0-0.9-0.4-0.9-0.9l0-1.9l-1.5,0c-0.5,0-0.9-0.4-0.9-0.9l0-1.3
			l-0.9,0l0,1.3c0,0.5-0.4,0.9-0.9,0.9l-1.5,0l0,1.9c0,0.5-0.4,0.9-0.9,0.9l-6.1,0c-0.2,0-0.4-0.1-0.6-0.3l0,0
			c-0.2-0.2-0.3-0.4-0.3-0.6l0-0.9c0-5.2,4.2-9.4,9.4-9.5c0.2,0,0.4,0.1,0.6,0.2c0.2,0.1,0.3,0.4,0.3,0.6l0,0.2l0.9,0v-0.2
			c0-0.2,0.1-0.4,0.3-0.6c0.2-0.2,0.4-0.3,0.6-0.3l1.4,0l0-0.8l-3.9,0c-2.7,0-5.3,1.1-7.2,3c-1.9,1.9-3,4.5-3,7.2l0,0.9
			c0,0.5-0.4,0.9-0.9,0.9L411.2,186.7z"/>
		<g>
			<polygon fill="#92979E" points="446.2,233.3 449.5,234.1 446.2,234.9 405.9,234.9 402.7,234.1 405.9,233.3 			"/>
			<polygon fill="#92979E" points="446.2,231.3 449.5,232.1 446.2,232.9 405.9,232.9 402.7,232.1 405.9,231.3 			"/>
		</g>
		<g>
			<polygon fill="#92979E" points="439,196.2 442.1,196.8 439,197.5 413.1,197.5 410,196.8 413.1,196.2 			"/>
			<polygon fill="#92979E" points="439,193.9 442.1,194.5 439,195.2 413.1,195.2 410,194.5 413.1,193.9 			"/>
			<polygon fill="#92979E" points="439,203.2 442.1,203.9 439,204.5 413.1,204.5 410,203.9 413.1,203.2 			"/>
			<polygon fill="#92979E" points="439,198.5 442.1,199.2 439,199.8 413.1,199.8 410,199.2 413.1,198.5 			"/>
			<polygon fill="#92979E" points="439,205.6 442.1,206.2 439,206.9 413.1,206.9 410,206.2 413.1,205.6 			"/>
			<polygon fill="#92979E" points="439,200.9 442.1,201.5 439,202.2 413.1,202.2 410,201.5 413.1,200.9 			"/>
			<polygon fill="#92979E" points="439,210.2 442.1,210.9 439,211.5 413.1,211.5 410,210.9 413.1,210.2 			"/>
			<polygon fill="#92979E" points="439,207.9 442.1,208.5 439,209.2 413.1,209.2 410,208.5 413.1,207.9 			"/>
			<polygon fill="#92979E" points="439,214.9 442.1,215.6 439,216.2 413.1,216.2 410,215.6 413.1,214.9 			"/>
			<polygon fill="#92979E" points="439,212.6 442.1,213.2 439,213.9 413.1,213.9 410,213.2 413.1,212.6 			"/>
			<polygon fill="#92979E" points="439,221.9 442.1,222.6 439,223.2 413.1,223.2 410,222.6 413.1,221.9 			"/>
			<polygon fill="#92979E" points="439,217.3 442.1,217.9 439,218.6 413.1,218.6 410,217.9 413.1,217.3 			"/>
			<polygon fill="#92979E" points="439,224.3 442.1,224.9 439,225.6 413.1,225.6 410,224.9 413.1,224.3 			"/>
			<polygon fill="#92979E" points="439,219.6 442.1,220.2 439,220.9 413.1,220.9 410,220.2 413.1,219.6 			"/>
			<polygon fill="#92979E" points="439,229 442.1,229.6 439,230.3 413.1,230.3 410,229.6 413.1,229 			"/>
			<polygon fill="#92979E" points="439,226.6 442.1,227.3 439,227.9 413.1,227.9 410,227.3 413.1,226.6 			"/>
		</g>
		<g>
			<path fill="#92979E" d="M417.6,326.3c0.2,0.2,0.3,0.4,0.3,0.6l0,2.4c0,0.5-0.4,0.9-0.9,0.9l-0.5,0c-0.6,0-1.2,0.2-1.7,0.7
				c-0.4,0.4-0.7,1-0.7,1.7c0,1.3,1.1,2.3,2.3,2.3l19.2,0c1.3,0,2.3-1.1,2.3-2.3l0,0c0-1.3-1.1-2.3-2.3-2.3l-0.5,0
				c-0.2,0-0.4-0.1-0.6-0.3l0,0c-0.2-0.2-0.3-0.4-0.3-0.6l0-2.4c0-0.5,0.4-0.9,0.9-0.9l0.5,0c1.3,0,2.3-1.1,2.3-2.3
				c0-0.6-0.2-1.2-0.7-1.7l0,0c-0.4-0.4-1-0.7-1.7-0.7l-0.5,0c-0.5,0-0.9-0.4-0.9-0.9l0-2.4c0-0.2,0.1-0.4,0.3-0.6
				c0.2-0.2,0.4-0.3,0.6-0.3l0.5,0c1.3,0,2.3-1.1,2.3-2.3c0-1.3-1.1-2.3-2.3-2.3l-0.5,0c-0.2,0-0.4-0.1-0.6-0.3l0,0
				c-0.2-0.2-0.3-0.4-0.3-0.6l0-2.4c0-0.5,0.4-0.9,0.9-0.9l0.5,0c1.3,0,2.3-1.1,2.3-2.3c0-1.2-1.1-2.3-2.3-2.3l-0.5,0
				c-0.5,0-0.9-0.4-0.9-0.9l0-0.5l-16.4,0l0,0.5c0,0.5-0.4,0.9-0.9,0.9l-0.5,0c-1.3,0-2.3,1.1-2.3,2.3c0,1.3,1.1,2.3,2.3,2.3l0.5,0
				c0.5,0,0.9,0.4,0.9,0.9l0,2.4c0,0.5-0.4,0.9-0.9,0.9l-0.5,0c-1.3,0-2.3,1.1-2.3,2.3c0,0.6,0.2,1.2,0.7,1.7l0,0
				c0.4,0.4,1,0.7,1.7,0.7l0.5,0c0.5,0,0.9,0.4,0.9,0.9l0,2.4c0,0.2-0.1,0.4-0.3,0.6c-0.2,0.2-0.4,0.3-0.6,0.3l-0.5,0
				c-1.3,0-2.3,1.1-2.3,2.3c0,1.3,1.1,2.3,2.3,2.3l0.5,0C417.2,326,417.5,326.1,417.6,326.3z"/>
			<path fill="#92979E" d="M421.6,348.3c0.2,0.2,0.3,0.4,0.3,0.6l0,4.7c0,0.3-0.1,0.5-0.3,0.7c-1.9,1.5-3,3.6-3,6
				c0,1.7,0.6,3.4,1.7,4.8l11.8,0c1.1-1.4,1.7-3,1.7-4.8l0,0c0-2.3-1.1-4.5-3-6c-0.2-0.2-0.3-0.4-0.3-0.7l0-4.7
				c0-0.3,0.2-0.6,0.4-0.7c1.3-0.7,2.1-2.1,2.1-3.5l0-7l-13.6,0l0,7c0,1.5,0.8,2.8,2.1,3.5C421.4,348.2,421.5,348.2,421.6,348.3z"/>
		</g>
		<path fill="#92979E" d="M444.2,249.8c-0.2-0.2-0.5-0.4-0.9-0.4l-34.6,0c-0.3,0-0.6,0.1-0.9,0.4c-0.2,0.2-0.4,0.5-0.4,0.9
			c0,0.3,0.1,0.6,0.4,0.9l0,0c0.2,0.2,0.5,0.4,0.9,0.4l0,0l34.6,0c0.3,0,0.6-0.1,0.9-0.4c0.2-0.2,0.4-0.5,0.4-0.9
			C444.6,250.4,444.5,250.1,444.2,249.8z"/>
		<path fill="#92979E" d="M408,267.2c0.4,1.3,1.6,2.3,3.1,2.3l30,0c0.9,0,1.7-0.3,2.3-0.9c0.4-0.4,0.7-0.9,0.8-1.4L408,267.2z"/>
	</g>
	<g>
		<path fill="#204F9F" d="M189.6,214.1c-5.9,0-10.6,4.8-10.6,10.6c0,5.9,4.8,10.6,10.6,10.6c5.9,0,10.6-4.8,10.6-10.6
			C200.2,218.9,195.4,214.1,189.6,214.1z M192.5,231.4c-3.7,1.6-8-0.1-9.6-3.8c-1.6-3.7,0.1-8,3.8-9.6c3.7-1.6,8,0.1,9.6,3.8
			C197.8,225.5,196.2,229.8,192.5,231.4z"/>
		<path fill="#204F9F" d="M204.1,224.5l-1-2.3l2.3-2.2l-1.6-3.6l-3.2,0.2l-1-2.3l-2.4-0.9l0.1-3.2l-3.6-1.4l-2.1,2.4l-2.4-0.9
			l-2.3,1l-2.2-2.3l-3.6,1.5l0.2,3.2l-2.3,1l-0.9,2.4l-3.2-0.1l-1.4,3.6l2.4,2.1l-0.9,2.4l1,2.3l-2.3,2.2l1.6,3.6l3.2-0.2l1,2.3
			l2.4,0.9l-0.1,3.2l3.6,1.4l2.1-2.4l2.4,0.9l2.3-1l2.2,2.3l3.6-1.5l-0.2-3.2l2.3-1l0.9-2.4l3.2,0.1l1.4-3.6l-2.4-2.1L204.1,224.5z
			 M189.6,236.7c-6.6,0-12-5.4-12-12c0-6.6,5.4-12,12-12c6.6,0,12,5.4,12,12C201.6,231.3,196.2,236.7,189.6,236.7z"/>
	</g>
</g>
</svg>
