<?xml version="1.0" encoding="utf-8"?>
<!-- Generator: Adobe Illustrator 18.1.1, SVG Export Plug-In . SVG Version: 6.00 Build 0)  -->
<svg version="1.1" id="Layer_1" xmlns="http://www.w3.org/2000/svg" xmlns:xlink="http://www.w3.org/1999/xlink" x="0px" y="0px"
	 viewBox="0 0 612 575" enable-background="new 0 0 612 575" xml:space="preserve">
<path fill="#92979E" d="M497.9,299.7v21.9h-8.7c-15.6,0-28.3-12.7-28.3-28.3v-93.6h21.9v26.6h14.4v21.9h-14.4v45.1
	c0,3.5,2.8,6.3,6.3,6.3H497.9z"/>
<g>
	<path fill="#92979E" d="M419.7,230.1l0,8.8l31.8,0l0-8.8L419.7,230.1z"/>
	<path fill="#92979E" d="M428.3,253.1l0,21.3l14.6,0l0-21.3L428.3,253.1z"/>
	<g>
		<path fill="#92979E" d="M428.9,242.6l0,6.9l13.5,0l0-6.9L428.9,242.6z"/>
		<path fill="#92979E" d="M419.7,242.6l0,6.9l6.7,0l0-6.9L419.7,242.6z"/>
		<path fill="#92979E" d="M444.8,242.6l0,6.9l6.7,0l0-6.9L444.8,242.6z"/>
	</g>
	<path fill="#92979E" d="M425.1,194.7l0,3.1l20.5,0l0-3.1l-7.6,0c-0.3,0-0.6-0.3-0.6-0.6l0-1.3l-1.1,0c-0.3,0-0.6-0.3-0.6-0.6l0-0.9
		l-0.7,0l0,0.9c0,0.3-0.3,0.6-0.6,0.6l-1.1,0l0,1.3c0,0.3-0.3,0.6-0.6,0.6l-4.3,0c-0.2,0-0.3-0.1-0.4-0.2l0,0
		c-0.1-0.1-0.2-0.3-0.2-0.4l0-0.7c0-3.6,3-6.6,6.6-6.7c0.2,0,0.3,0.1,0.4,0.2c0.1,0.1,0.2,0.3,0.2,0.4l0,0.2l0.7,0l0-0.2
		c0-0.2,0.1-0.3,0.2-0.4c0.1-0.1,0.3-0.2,0.4-0.2l1,0l0-0.5l-2.8,0c-1.9,0-3.7,0.8-5.1,2.1c-1.4,1.4-2.1,3.2-2.1,5.1l0,0.7
		c0,0.3-0.3,0.6-0.6,0.6L425.1,194.7z"/>
	<g>
		<polygon fill="#92979E" points="449.8,227.5 452.1,228.1 449.8,228.7 421.4,228.7 419.1,228.1 421.4,227.5 		"/>
		<polygon fill="#92979E" points="449.8,226.1 452.1,226.7 449.8,227.2 421.4,227.2 419.1,226.7 421.4,226.1 		"/>
	</g>
	<g>
		<polygon fill="#92979E" points="444.7,201.3 446.9,201.8 444.7,202.3 426.5,202.3 424.3,201.8 426.5,201.3 		"/>
		<polygon fill="#92979E" points="444.7,199.7 446.9,200.2 444.7,200.6 426.5,200.6 424.3,200.2 426.5,199.7 		"/>
		<polygon fill="#92979E" points="444.7,206.3 446.9,206.8 444.7,207.2 426.5,207.2 424.3,206.8 426.5,206.3 		"/>
		<polygon fill="#92979E" points="444.7,203 446.9,203.5 444.7,203.9 426.5,203.9 424.3,203.5 426.5,203 		"/>
		<polygon fill="#92979E" points="444.7,207.9 446.9,208.4 444.7,208.9 426.5,208.9 424.3,208.4 426.5,207.9 		"/>
		<polygon fill="#92979E" points="444.7,204.6 446.9,205.1 444.7,205.6 426.5,205.6 424.3,205.1 426.5,204.6 		"/>
		<polygon fill="#92979E" points="444.7,211.2 446.9,211.7 444.7,212.2 426.5,212.2 424.3,211.7 426.5,211.2 		"/>
		<polygon fill="#92979E" points="444.7,209.6 446.9,210.1 444.7,210.5 426.5,210.5 424.3,210.1 426.5,209.6 		"/>
		<polygon fill="#92979E" points="444.8,214.5 446.9,215 444.7,215.5 426.5,215.5 424.3,215 426.5,214.5 		"/>
		<polygon fill="#92979E" points="444.7,212.9 446.9,213.4 444.7,213.8 426.5,213.8 424.3,213.4 426.5,212.9 		"/>
		<polygon fill="#92979E" points="444.7,219.5 446.9,220 444.7,220.4 426.5,220.4 424.3,220 426.5,219.5 		"/>
		<polygon fill="#92979E" points="444.7,216.2 446.9,216.7 444.8,217.1 426.5,217.1 424.3,216.7 426.5,216.2 		"/>
		<polygon fill="#92979E" points="444.7,221.1 446.9,221.6 444.8,222.1 426.5,222.1 424.3,221.6 426.5,221.1 		"/>
		<polygon fill="#92979E" points="444.7,217.8 446.9,218.3 444.8,218.8 426.5,218.8 424.3,218.3 426.5,217.8 		"/>
		<polygon fill="#92979E" points="444.8,224.4 446.9,224.9 444.8,225.4 426.5,225.4 424.3,224.9 426.5,224.4 		"/>
		<polygon fill="#92979E" points="444.8,222.8 446.9,223.3 444.8,223.7 426.5,223.7 424.3,223.3 426.5,222.8 		"/>
	</g>
	<g>
		<path fill="#92979E" d="M429.6,293.1c0.1,0.1,0.2,0.3,0.2,0.4l0,1.7c0,0.3-0.3,0.6-0.6,0.6h-0.4c-0.4,0-0.9,0.2-1.2,0.5
			c-0.3,0.3-0.5,0.7-0.5,1.2c0,0.9,0.8,1.7,1.7,1.7l13.5,0c0.9,0,1.7-0.7,1.7-1.7l0,0c0-0.9-0.7-1.7-1.7-1.7l-0.4,0
			c-0.2,0-0.3-0.1-0.4-0.2l0,0c-0.1-0.1-0.2-0.3-0.2-0.4l0-1.7c0-0.3,0.3-0.6,0.6-0.6l0.4,0c0.9,0,1.7-0.7,1.7-1.7
			c0-0.4-0.2-0.9-0.5-1.2l0,0c-0.3-0.3-0.7-0.5-1.2-0.5l-0.4,0c-0.3,0-0.6-0.3-0.6-0.6l0-1.7c0-0.2,0.1-0.3,0.2-0.4
			c0.1-0.1,0.3-0.2,0.4-0.2l0.4,0c0.9,0,1.7-0.7,1.7-1.7c0-0.9-0.7-1.7-1.7-1.7l-0.4,0c-0.2,0-0.3-0.1-0.4-0.2l0,0
			c-0.1-0.1-0.2-0.3-0.2-0.4l0-1.7c0-0.3,0.3-0.6,0.6-0.6l0.4,0c0.9,0,1.7-0.7,1.7-1.7c0-0.9-0.8-1.7-1.7-1.7l-0.4,0
			c-0.3,0-0.6-0.3-0.6-0.6l0-0.3l-11.6,0l0,0.3c0,0.3-0.3,0.6-0.6,0.6l-0.4,0c-0.9,0-1.7,0.7-1.7,1.7c0,0.9,0.8,1.7,1.7,1.7l0.4,0
			c0.3,0,0.6,0.3,0.6,0.6l0,1.7c0,0.3-0.3,0.6-0.6,0.6l-0.4,0c-0.9,0-1.7,0.7-1.7,1.7c0,0.4,0.2,0.9,0.5,1.2l0,0
			c0.3,0.3,0.7,0.5,1.2,0.5l0.4,0c0.3,0,0.6,0.3,0.6,0.6l0,1.7c0,0.2-0.1,0.3-0.2,0.4c-0.1,0.1-0.3,0.2-0.4,0.2l-0.4,0
			c-0.9,0-1.7,0.7-1.7,1.7c0,0.9,0.7,1.7,1.7,1.7h0.4C429.4,292.9,429.5,293,429.6,293.1z"/>
		<path fill="#92979E" d="M432.4,308.6c0.1,0.1,0.2,0.3,0.2,0.4l0,3.3c0,0.2-0.1,0.4-0.2,0.5c-1.3,1-2.1,2.6-2.1,4.2
			c0,1.2,0.4,2.4,1.2,3.4l8.3,0c0.8-1,1.2-2.1,1.2-3.4l0,0c0-1.7-0.8-3.2-2.1-4.2c-0.1-0.1-0.2-0.3-0.2-0.5l0-3.3
			c0-0.2,0.1-0.4,0.3-0.5c0.9-0.5,1.5-1.5,1.5-2.5l0-5l-9.6,0l0,4.9c0,1,0.6,2,1.5,2.5C432.3,308.5,432.4,308.5,432.4,308.6z"/>
	</g>
	<path fill="#92979E" d="M448.4,239.2c-0.2-0.2-0.4-0.3-0.6-0.3l-24.4,0c-0.2,0-0.5,0.1-0.6,0.3c-0.2,0.2-0.3,0.4-0.3,0.6
		c0,0.2,0.1,0.5,0.3,0.6l0,0c0.2,0.2,0.4,0.3,0.6,0.3l0,0l24.4,0c0.2,0,0.5-0.1,0.6-0.3c0.2-0.2,0.3-0.4,0.3-0.6
		C448.7,239.5,448.6,239.3,448.4,239.2z"/>
	<path fill="#92979E" d="M422.8,251.5c0.3,0.9,1.1,1.6,2.2,1.6l21.2,0c0.6,0,1.2-0.2,1.6-0.7c0.3-0.3,0.5-0.6,0.6-1L422.8,251.5z"/>
</g>
<path fill="#204F9F" d="M139.8,189.8h226.5v19.1H147.8c-11.8,0-21.3,9.5-21.3,21.3v14.1h40.9v22.8h-40.9v54.5h-22.8v-95.7
	C103.7,205.9,119.9,189.8,139.8,189.8z"/>
<path fill="#204F9F" d="M174.2,321.5v-70.1h21.7v70.1H174.2z"/>
<path fill="#204F9F" d="M296.1,271.1v50.3h-21.9v-50.3c0-15.6-11.4-28.4-25.5-28.4c-14.1,0-25.5,12.7-25.5,28.4v50.4h-21.9v-50.4
	c0-27.7,21.3-50.3,47.4-50.3C274.9,220.8,296.1,243.4,296.1,271.1z"/>
<path fill="#204F9F" d="M393.6,189.8v130h-21.7v-3.6c-6.9,4.1-14.9,6.5-23.3,6.5c-26.2,0-47.4-22.6-47.4-50.3s21.3-50.3,47.4-50.3
	c8.4,0,16.4,2.3,23.3,6.5v-38.8H393.6z M371.9,272.3c0,0,0-0.1,0-0.1c0-0.7,0-1.5-0.1-2.3c0-0.4-0.1-0.8-0.1-1.2
	c0-0.2-0.1-0.5-0.1-0.7c-0.3-2.6-1-5.1-1.9-7.4c-2.4-6.5-7.2-13-15.5-15.5c-1.7-0.6-3.6-0.9-5.4-1c0,0-0.1,0-0.1,0
	c-0.1,0-0.1,0-0.2,0c-0.3,0-0.6-0.1-0.9-0.1c-0.2,0-0.4,0-0.7,0c-0.6,0-1.2,0-1.8,0.1c-0.1,0-0.1,0-0.2,0c-3.2,0.4-6.3,1.5-9,3.3
	c0,0-0.1,0.1-0.1,0.1c-0.6,0.4-1.2,0.8-1.7,1.2c-0.4,0.3-0.9,0.7-1.3,1.1c-0.1,0.1-0.3,0.2-0.4,0.4c-5.6,5.2-9.2,13.2-9.2,22.2
	c0,0,0,0,0,0c0,0,0,0,0,0c0,0,0,0.1,0,0.1c0,15.1,10.1,27.3,22.9,28.2c0,0,0,0,0,0c0.5,0,1,0.1,1.5,0.1c0.2,0,0.3,0,0.5,0
	c0.2,0,0.4,0,0.6,0c0.5,0,0.9-0.1,1.3-0.1c0,0,0.1,0,0.1,0c4.7-0.5,8.6-2.4,11.6-5.2c6.2-5.2,10.2-13.6,10.2-23.1
	C371.9,272.3,371.9,272.3,371.9,272.3z"/>
<g>
	<g>
		<path fill="#204F9F" d="M186.5,219.4c-5.9-0.8-11.4,3.4-12.2,9.4c-0.8,5.9,3.4,11.4,9.4,12.1c5.9,0.8,11.4-3.4,12.1-9.4
			C196.6,225.6,192.4,220.2,186.5,219.4z M187.1,237.3c-3.9,1.1-8.1-1.1-9.2-5.1c-1.1-3.9,1.1-8.1,5.1-9.2c3.9-1.1,8.1,1.1,9.2,5.1
			C193.3,232,191.1,236.2,187.1,237.3z"/>
		<path fill="#204F9F" d="M199.8,231.8l-0.7-2.5l2.6-1.9l-1.1-3.8l-3.2-0.2l-0.7-2.5l-2.3-1.3l0.5-3.2l-3.5-1.9l-2.4,2.1l-2.3-1.3
			l-2.5,0.7l-1.9-2.6l-3.8,1.1l-0.2,3.2l-2.5,0.7l-1.3,2.3l-3.2-0.5l-1.9,3.5l2.1,2.4l-1.3,2.3l0.7,2.5l-2.6,1.9l1.1,3.8l3.2,0.2
			l0.7,2.5l2.3,1.3l-0.5,3.2l3.5,1.9l2.4-2.1l2.3,1.3l2.5-0.7l1.9,2.6l3.8-1.1l0.2-3.2l2.5-0.7l1.3-2.3l3.2,0.5l1.9-3.5l-2.1-2.4
			L199.8,231.8z M183.5,242.3c-6.7-0.9-11.5-7-10.6-13.7c0.9-6.7,7-11.5,13.7-10.6c6.7,0.9,11.5,7,10.6,13.7
			C196.4,238.4,190.2,243.2,183.5,242.3z"/>
	</g>
</g>
</svg>
